<svg xmlns="http://www.w3.org/2000/svg" width="100" height="150" viewBox="0 0 100 150">
    <g transform="translate(0 0)">
        <path data-name="패스 10518" d="M24 0H0v24h24z" style="fill:none"/>
        <path data-name="빼기 4" d="M-13663-1765h-8a1 1 0 0 1-1-1 1 1 0 0 1 1-1h2.252l.5-2h-6.529a2.275 2.275 0 0 1-1.571-.628 2.144 2.144 0 0 1-.652-1.524v-9.693a2.128 2.128 0 0 1 .652-1.521 2.265 2.265 0 0 1 1.571-.632h15.553a2.265 2.265 0 0 1 1.572.632 2.119 2.119 0 0 1 .652 1.521v9.693a2.135 2.135 0 0 1-.652 1.524 2.276 2.276 0 0 1-1.572.628h-6.524l.5 2h2.248a1 1 0 0 1 1 1 1 1 0 0 1-1 1zm-10.922-16a1.072 1.072 0 0 0-.714.27 1.053 1.053 0 0 0-.364.731v7a1.054 1.054 0 0 0 .364.735 1.105 1.105 0 0 0 .725.269h13.825a1.1 1.1 0 0 0 .725-.268 1.068 1.068 0 0 0 .363-.735v-7a1.05 1.05 0 0 0-.363-.731 1.072 1.072 0 0 0-.714-.27h-13.782z" transform="translate(13678.999 1786.001)" style="fill:#c4c9d4"/>
    </g>
    <g transform="translate(50 0)">
        <path data-name="패스 10518" d="M24 0H0v24h24z" style="fill:none"/>
        <path data-name="빼기 4" d="M-13663-1765h-8a1 1 0 0 1-1-1 1 1 0 0 1 1-1h2.252l.5-2h-6.529a2.275 2.275 0 0 1-1.571-.628 2.144 2.144 0 0 1-.652-1.524v-9.693a2.128 2.128 0 0 1 .652-1.521 2.265 2.265 0 0 1 1.571-.632h15.553a2.265 2.265 0 0 1 1.572.632 2.119 2.119 0 0 1 .652 1.521v9.693a2.135 2.135 0 0 1-.652 1.524 2.276 2.276 0 0 1-1.572.628h-6.524l.5 2h2.248a1 1 0 0 1 1 1 1 1 0 0 1-1 1zm-10.922-16a1.072 1.072 0 0 0-.714.27 1.053 1.053 0 0 0-.364.731v7a1.054 1.054 0 0 0 .364.735 1.105 1.105 0 0 0 .725.269h13.825a1.1 1.1 0 0 0 .725-.268 1.068 1.068 0 0 0 .363-.735v-7a1.05 1.05 0 0 0-.363-.731 1.072 1.072 0 0 0-.714-.27h-13.782z" transform="translate(13678.999 1786.001)" style="fill:#07f"/>
    </g>
    <g transform="translate(0 50)">
        <path data-name="패스 10523" d="M24 0H0v24h24z" style="fill:none"/>
        <path data-name="빼기 5" d="M-13145.731 359h-11.539a1.7 1.7 0 0 1-1.73-1.664v-16.669a1.7 1.7 0 0 1 1.73-1.668h11.539a1.7 1.7 0 0 1 1.73 1.668v16.668a1.7 1.7 0 0 1-1.73 1.665zm-5.77-4a1.5 1.5 0 0 0-1.5 1.5 1.5 1.5 0 0 0 1.5 1.5 1.5 1.5 0 0 0 1.5-1.5 1.5 1.5 0 0 0-1.499-1.5zm-4.276-14a1.16 1.16 0 0 0-1.222 1.083v10.832a1.16 1.16 0 0 0 1.222 1.083h8.554a1.162 1.162 0 0 0 1.225-1.083v-10.832a1.162 1.162 0 0 0-1.225-1.083z" transform="translate(13163 -337)" style="fill:#c4c9d4"/>
    </g>
    <g transform="translate(50 50)">   
        <path data-name="패스 10523" d="M24 0H0v24h24z" style="fill:none"/>
        <path data-name="빼기 5" d="M-13145.731 359h-11.539a1.7 1.7 0 0 1-1.73-1.664v-16.669a1.7 1.7 0 0 1 1.73-1.668h11.539a1.7 1.7 0 0 1 1.73 1.668v16.668a1.7 1.7 0 0 1-1.73 1.665zm-5.77-4a1.5 1.5 0 0 0-1.5 1.5 1.5 1.5 0 0 0 1.5 1.5 1.5 1.5 0 0 0 1.5-1.5 1.5 1.5 0 0 0-1.499-1.5zm-4.276-14a1.16 1.16 0 0 0-1.222 1.083v10.832a1.16 1.16 0 0 0 1.222 1.083h8.554a1.162 1.162 0 0 0 1.225-1.083v-10.832a1.162 1.162 0 0 0-1.225-1.083z" transform="translate(13163 -337)" style="fill:#07f"/>
    </g>
    <g transform="translate(0 100)">
        <path data-name="패스 10526" d="M24 0H0v24h24z" style="fill:none"/>
        <path data-name="합치기 6" d="m-13719.576-1766.769-1.123-1.965a1 1 0 0 0-.869-.5h-6.864a1.006 1.006 0 0 0-.869.5l-1.123 1.965a3.531 3.531 0 0 1-3.055 1.769 3.5 3.5 0 0 1-2.734-1.307 3.5 3.5 0 0 1-.707-2.948l1.917-8.995a6 6 0 0 1 2.093-3.413 6.023 6.023 0 0 1 3.775-1.338h8.271a6.023 6.023 0 0 1 3.775 1.338 5.985 5.985 0 0 1 2.093 3.413l1.92 8.995a3.5 3.5 0 0 1-.707 2.948 3.5 3.5 0 0 1-2.737 1.307 3.531 3.531 0 0 1-3.056-1.769zm-1.992-4.468a3 3 0 0 1 2.6 1.51l1.128 1.962a1.515 1.515 0 0 0 1.316.765 1.514 1.514 0 0 0 1.183-.565 1.505 1.505 0 0 0 .3-1.272l-1.917-8.995a4.02 4.02 0 0 0-1.4-2.279 4.022 4.022 0 0 0-2.517-.89h-.469l-.027.166a1 1 0 0 1-.986.834h-5.306a1 1 0 0 1-.986-.834l-.027-.166h-.469a4.022 4.022 0 0 0-2.517.89 4.036 4.036 0 0 0-1.4 2.279l-1.917 8.995a1.51 1.51 0 0 0 .307 1.272 1.514 1.514 0 0 0 1.18.565 1.524 1.524 0 0 0 1.32-.765l1.124-1.962a3.008 3.008 0 0 1 2.6-1.51zM-13730-1774v-1h-1a1 1 0 0 1-1-1 1 1 0 0 1 1-1h1v-1a1 1 0 0 1 1-1 1 1 0 0 1 1 1v1h1a1 1 0 0 1 1 1 1 1 0 0 1-1 1h-1v1a1 1 0 0 1-1 1 1 1 0 0 1-1-1zm10.232.2-.731-.734-.734.734a1.034 1.034 0 0 1-1.462 0 1.033 1.033 0 0 1 0-1.465l.731-.734-.731-.731a1.033 1.033 0 0 1 0-1.465 1.034 1.034 0 0 1 1.462 0l.734.734.731-.734a1.038 1.038 0 0 1 1.465 0 1.031 1.031 0 0 1 0 1.465l-.73.731.73.734a1.031 1.031 0 0 1 0 1.465 1.029 1.029 0 0 1-.731.3 1.038 1.038 0 0 1-.735-.3z" transform="translate(13737 1786)" style="fill:#c4c9d4"/>
    </g>
    <g transform="translate(50 100)">
        <path data-name="패스 10526" d="M24 0H0v24h24z" style="fill:none"/>
        <path data-name="합치기 6" d="m-13719.576-1766.769-1.123-1.965a1 1 0 0 0-.869-.5h-6.864a1.006 1.006 0 0 0-.869.5l-1.123 1.965a3.531 3.531 0 0 1-3.055 1.769 3.5 3.5 0 0 1-2.734-1.307 3.5 3.5 0 0 1-.707-2.948l1.917-8.995a6 6 0 0 1 2.093-3.413 6.023 6.023 0 0 1 3.775-1.338h8.271a6.023 6.023 0 0 1 3.775 1.338 5.985 5.985 0 0 1 2.093 3.413l1.92 8.995a3.5 3.5 0 0 1-.707 2.948 3.5 3.5 0 0 1-2.737 1.307 3.531 3.531 0 0 1-3.056-1.769zm-1.992-4.468a3 3 0 0 1 2.6 1.51l1.128 1.962a1.515 1.515 0 0 0 1.316.765 1.514 1.514 0 0 0 1.183-.565 1.505 1.505 0 0 0 .3-1.272l-1.917-8.995a4.02 4.02 0 0 0-1.4-2.279 4.022 4.022 0 0 0-2.517-.89h-.469l-.027.166a1 1 0 0 1-.986.834h-5.306a1 1 0 0 1-.986-.834l-.027-.166h-.469a4.022 4.022 0 0 0-2.517.89 4.036 4.036 0 0 0-1.4 2.279l-1.917 8.995a1.51 1.51 0 0 0 .307 1.272 1.514 1.514 0 0 0 1.18.565 1.524 1.524 0 0 0 1.32-.765l1.124-1.962a3.008 3.008 0 0 1 2.6-1.51zM-13730-1774v-1h-1a1 1 0 0 1-1-1 1 1 0 0 1 1-1h1v-1a1 1 0 0 1 1-1 1 1 0 0 1 1 1v1h1a1 1 0 0 1 1 1 1 1 0 0 1-1 1h-1v1a1 1 0 0 1-1 1 1 1 0 0 1-1-1zm10.232.2-.731-.734-.734.734a1.034 1.034 0 0 1-1.462 0 1.033 1.033 0 0 1 0-1.465l.731-.734-.731-.731a1.033 1.033 0 0 1 0-1.465 1.034 1.034 0 0 1 1.462 0l.734.734.731-.734a1.038 1.038 0 0 1 1.465 0 1.031 1.031 0 0 1 0 1.465l-.73.731.73.734a1.031 1.031 0 0 1 0 1.465 1.029 1.029 0 0 1-.731.3 1.038 1.038 0 0 1-.735-.3z" transform="translate(13737 1786)" style="fill:#07f"/>
    </g>
</svg>
 